HIERARCHY
ROOT root
{
	OFFSET	0	13.1	24.9
	CHANNELS 6  Xposition Yposition Zposition Xrotation Yrotation Zrotation
	JOINT spine_1
	{
		OFFSET	0	9.99999	0
		CHANNELS 3  Xrotation Yrotation Zrotation
		JOINT spine_2
		{
			OFFSET	0	112	-10
			CHANNELS 3  Xrotation Yrotation Zrotation
			JOINT spine_3
			{
				OFFSET	0	206.5	19.3
				CHANNELS 3  Xrotation Yrotation Zrotation
				JOINT spine_4
				{
					OFFSET	0	110.4	14.6
					CHANNELS 3  Xrotation Yrotation Zrotation
					JOINT neck_1
					{
						OFFSET	0	71.8	-50.3
						CHANNELS 3  Xrotation Yrotation Zrotation
						JOINT neck_2
						{
							OFFSET	0	86.2	-25.8
							CHANNELS 3  Xrotation Yrotation Zrotation
							JOINT head_ee
							{
								OFFSET	0	179.8	-8.7
								CHANNELS 3  Xrotation Yrotation Zrotation
								End Site
								{
									OFFSET	1	0	0
								}
							}
						}
					}
					JOINT left_clavicle
					{
						OFFSET	-43.2	22.4	-70.8
						CHANNELS 3  Xrotation Yrotation Zrotation
						JOINT left_shoulder
						{
							OFFSET	-93.9	-5.79999	48.7
							CHANNELS 3  Xrotation Yrotation Zrotation
							JOINT left_elbow
							{
								OFFSET	-291.4	-30.8	15.2
								CHANNELS 3  Xrotation Yrotation Zrotation
								JOINT left_lowarm_twist
								{
									OFFSET	-110.7	-3.89999	13.6
									CHANNELS 3  Xrotation Yrotation Zrotation
									JOINT left_hand
									{
										OFFSET	-110.7	-3.89999	13.6
										CHANNELS 3  Xrotation Yrotation Zrotation
										JOINT left_ee
										{
											OFFSET	-80.8	-5.10001	12.1
											CHANNELS 3  Xrotation Yrotation Zrotation
											End Site
											{
												OFFSET	1	0	0
											}
										}
									}
								}
							}
						}
					}
					JOINT right_clavicle
					{
						OFFSET	43.2	22.4	-70.8
						CHANNELS 3  Xrotation Yrotation Zrotation
						JOINT right_shoulder
						{
							OFFSET	93.9	-5.79999	48.7
							CHANNELS 3  Xrotation Yrotation Zrotation
							JOINT right_elbow
							{
								OFFSET	291.4	-30.8	15.2
								CHANNELS 3  Xrotation Yrotation Zrotation
								JOINT right_lowarm_twist
								{
									OFFSET	110.7	-3.89999	13.6
									CHANNELS 3  Xrotation Yrotation Zrotation
									JOINT right_hand
									{
										OFFSET	110.7	-3.89999	13.6
										CHANNELS 3  Xrotation Yrotation Zrotation
										JOINT right_ee
										{
											OFFSET	80.8	-5.10001	12.1
											CHANNELS 3  Xrotation Yrotation Zrotation
											End Site
											{
												OFFSET	1	0	0
											}
										}
									}
								}
							}
						}
					}
				}
			}
		}
	}
	JOINT left_hip
	{
		OFFSET	-82.8	-127.5	0.300001
		CHANNELS 3  Xrotation Yrotation Zrotation
		JOINT left_knee
		{
			OFFSET	-28.2	-396.7	2.2
			CHANNELS 3  Xrotation Yrotation Zrotation
			JOINT left_ankle
			{
				OFFSET	-11.7	-411.3	35.4
				CHANNELS 3  Xrotation Yrotation Zrotation
				JOINT left_toes
				{
					OFFSET	0	-60	-88.6
					CHANNELS 3  Xrotation Yrotation Zrotation
					JOINT left_foot_ee
					{
						OFFSET	-22.5	-16.5	-42.2
						CHANNELS 3  Xrotation Yrotation Zrotation
						End Site
						{
							OFFSET	1	0	0
						}
					}
				}
			}
		}
	}
	JOINT right_hip
	{
		OFFSET	82.8	-127.5	0.300001
		CHANNELS 3  Xrotation Yrotation Zrotation
		JOINT right_knee
		{
			OFFSET	28.2	-396.7	2.2
			CHANNELS 3  Xrotation Yrotation Zrotation
			JOINT right_ankle
			{
				OFFSET	11.7	-411.3	35.4
				CHANNELS 3  Xrotation Yrotation Zrotation
				JOINT right_toes
				{
					OFFSET	0	-60	-88.6
					CHANNELS 3  Xrotation Yrotation Zrotation
					JOINT right_foot_ee
					{
						OFFSET	22.5	-16.5	-42.2
						CHANNELS 3  Xrotation Yrotation Zrotation
						End Site
						{
							OFFSET	1	0	0
						}
					}
				}
			}
		}
	}
}
MOTION
Frames: 6
Frame Time: 0.02
2115.19 721.849 -1509.19 -12.3727 61.74 11.0251 1.78849 -0.029603 -0.0623203 1.7885 -0.0255775 -0.0640777 1.78853 -0.0136559 -0.0676289 1.78852 -0.0241653 -0.0646235 -23.7166 16.1963 13.3873 -24.43 25.4097 20.3564 -0.0 0.0 -0.0 3.05692 23.5313 6.9121 -15.1743 -4.99667 63.6431 1.40735 -34.8807 0.442146 -63.3544 -5.70262 5.1933 -0.134379 9.19737 2.95045 -0.0 0.0 -0.0 13.0215 23.3275 -26.0144 -16.432 9.75756 -60.9955 0.406075 11.3739 -0.0404386 83.2202 4.21471 8.78077 0.559847 -28.7452 -14.3631 0.0 0.0 0.0 19.2426 49.0775 -15.1364 -6.4334 0.210919 0.964292 14.1617 -28.3622 -2.44752 11.9253 -0.0 -0.0 -0.0 0.0 -0.0 17.0976 17.5732 -2.55101 -14.1414 -0.319415 -2.14117 32.4106 15.1033 4.43193 -33.3248 0.0 0.0 0.0 0.0 0.0 
2110.05 720.754 -1508.18 -12.3283 62.1931 10.9744 1.81619 -0.0276234 -0.103903 1.81619 -0.0209558 -0.10545 1.81623 -0.00173251 -0.107499 1.81622 -0.0186881 -0.105876 -23.1852 16.2647 13.333 -23.8623 25.4484 20.1754 -0.0 0.0 -0.0 2.39813 23.0697 5.98695 -14.3752 -6.03043 64.3141 1.54525 -37.4304 0.523524 -63.4547 -5.71526 5.19568 -0.0716292 7.36079 2.59984 -0.0 0.0 -0.0 12.9855 23.736 -25.8906 -17.7594 8.74691 -61.1591 0.395075 11.0735 -0.0382975 83.2134 4.2139 8.78043 0.556964 -28.5184 -14.2759 0.0 0.0 0.0 18.5037 49.5661 -14.7143 -6.40853 0.210313 0.960523 14.0865 -28.3968 -2.43649 13.1722 -0.0 -0.0 -0.0 0.0 -0.0 17.1875 17.678 -2.35756 -15.4756 -0.32208 -2.34586 32.3483 12.7468 4.36072 -33.6626 0.0 0.0 0.0 0.0 0.0 
2107.36 720.758 -1506.97 -13.5575 62.1066 11.9948 2.00517 0.089929 -0.0500554 2.00517 0.0929319 -0.0442315 2.0051 0.0992616 -0.0272011 2.00511 0.09372 -0.0425362 -23.1441 16.2675 12.0894 -23.9762 25.9908 19.0797 -0.0 0.0 -0.0 3.03081 23.1797 6.86882 -13.7595 -6.13506 62.9781 1.58901 -38.2052 0.550356 -63.4202 -5.7109 5.19486 -0.132474 6.50151 1.84748 -0.0 0.0 -0.0 13.0003 23.6876 -25.9296 -17.7096 7.91295 -61.502 0.348502 9.79505 -0.029862 83.4948 4.24722 8.79437 0.432185 -27.6589 -13.2993 0.0 0.0 0.0 17.5992 48.8448 -13.6502 -6.2263 0.205824 0.932918 14.0291 -27.0162 -2.3863 13.9605 -0.0 -0.0 -0.0 0.0 -0.0 16.9864 17.9063 -1.93919 -14.7397 -0.321199 -2.23295 32.2081 11.2876 4.31059 -34.3858 0.0 0.0 0.0 0.0 0.0 
2100.93 718.548 -1508.06 -13.9787 61.9595 12.622 2.0689 -0.0621626 -0.197611 2.06892 -0.0494621 -0.201166 2.06909 -0.0135492 -0.206714 2.06904 -0.0460258 -0.20198 -22.9926 16.3157 11.9448 -23.836 26.1174 18.9314 -0.0 0.0 -0.0 3.00706 23.2226 6.83675 -14.0035 -8.2292 62.3767 1.61898 -38.7264 0.568996 -63.1843 -5.68121 5.18922 -0.285088 5.94206 0.616492 -0.0 0.0 -0.0 12.9647 23.3261 -25.8827 -17.7792 6.96066 -61.5222 0.336669 9.46862 -0.0278823 83.9649 4.30301 8.81729 0.327856 -27.6497 -12.7085 0.0 0.0 0.0 17.2216 49.3493 -13.5044 -5.69866 0.192331 0.85307 14.8371 -26.101 -2.48679 13.835 -0.0 -0.0 -0.0 0.0 -0.0 17.5883 18.3634 -2.23095 -16.9937 -0.319315 -2.57875 34.8138 11.7293 4.58688 -34.5256 0.0 0.0 0.0 0.0 0.0 
2095.42 717.72 -1506.61 -13.0138 62.4946 11.7413 2.05886 -0.106406 -0.189651 2.05888 -0.0941227 -0.196038 2.0592 -0.0583831 -0.209478 2.05915 -0.0907335 -0.197629 -22.9062 15.985 11.7439 -23.6984 25.5502 18.5475 -0.0 0.0 -0.0 2.96752 22.9558 6.77572 -14.3328 -8.33158 61.6879 1.64762 -39.2176 0.58701 -62.8112 -5.6343 5.18006 -0.520945 5.04257 -1.31097 -0.0 0.0 -0.0 12.7441 22.239 -25.472 -17.7477 6.05487 -61.2229 0.323053 9.09219 -0.0256864 84.9904 4.42538 8.86569 0.166502 -27.8162 -11.8597 0.0 0.0 0.0 17.0595 49.6995 -13.6055 -6.46955 0.211797 0.969771 14.1944 -24.9973 -2.35682 14.1325 -0.0 -0.0 -0.0 0.0 -0.0 16.9866 18.5779 -1.99505 -17.6519 -0.316198 -2.6797 35.6275 11.6882 4.66575 -34.572 0.0 0.0 0.0 0.0 0.0 
2091.18 717.022 -1505.94 -13.5339 61.9111 12.1284 2.19287 -0.0898454 -0.210359 2.19289 -0.0762777 -0.21565 2.19318 -0.0379102 -0.225579 2.19312 -0.0730604 -0.216761 -22.2856 16.2006 10.9598 -23.1484 26.2005 17.7836 -0.0 0.0 -0.0 3.24501 23.444 7.17045 -14.1463 -9.29347 61.0926 1.64826 -39.2284 0.587414 -62.5856 -5.60595 5.17437 -0.664073 4.37001 -2.5422 -0.0 0.0 -0.0 12.7551 22.2759 -25.4943 -17.7522 5.38815 -60.8695 0.305318 8.60074 -0.022959 85.2815 4.46026 8.87903 0.077968 -27.3747 -11.212 0.0 0.0 0.0 16.989 51.0001 -13.7114 -6.36212 0.209179 0.953492 13.6097 -23.968 -2.24069 14.1295 -0.0 -0.0 -0.0 0.0 -0.0 16.9331 18.496 -1.746 -18.4793 -0.310636 -2.80652 37.2974 11.0795 4.8097 -34.4703 0.0 0.0 0.0 0.0 0.0 
